# xmcd
#
# Track frame offsets: 
#        150
#        14659
#        32164
#        49782
#        59398
#        90435
#        104688
#        122090
#        140022
#        156614
#        183930
#        206323
#        229050
#
# Disc length: 3168 seconds
#
# Revision: 0
# Processed by: cddbd v1.5.2PL0 Copyright (c) Steve Scherf et al.
# Submitted via: ExactAudioCopy v0.99pb3
#
DISCID=b70c5e0d
DTITLE=Rick Moore and Mr. Lucky - Satisfed
DYEAR=2000
DGENRE=Blues
TTITLE0=Satisfied Man
TTITLE1=Better Off With The Blues
TTITLE2=Take It Down To Memphis
TTITLE3=Good Man Gone Bad
TTITLE4=(I Wanna) Get Funky
TTITLE5=Hello Darkness
TTITLE6=Come And Go With Me
TTITLE7=She's Allright
TTITLE8=Act Of Faith
TTITLE9=Dark Before Daylight
TTITLE10=Memphis Stripper
TTITLE11=Sell My Monkey
TTITLE12=Fire In The Delta
EXTD=
EXTT0=
EXTT1=
EXTT2=
EXTT3=
EXTT4=
EXTT5=
EXTT6=
EXTT7=
EXTT8=
EXTT9=
EXTT10=
EXTT11=
EXTT12=
PLAYORDER=
